<?xml version="1.0" encoding="UTF-8"?>
<svg version="1.1" xmlns="http://www.w3.org/2000/svg" width="1024" height="1536">
<path d="M0 0 C337.92 0 675.84 0 1024 0 C1024 506.88 1024 1013.76 1024 1536 C686.08 1536 348.16 1536 0 1536 C0 1029.12 0 522.24 0 0 Z " fill="#0C1E37" transform="translate(0,0)"/>
<path d="M0 0 C61.71 0 123.42 0 187 0 C185.88215807 4.47136774 183.78965721 7.43007578 181.1875 11.125 C173.66337503 22.0845433 169.4895952 32.33654209 171.390625 45.7578125 C173.33550084 54.90870265 177.5622734 62.86218954 182 71 C182.45133301 71.82870605 182.90266602 72.65741211 183.36767578 73.51123047 C195.44970452 95.53741633 208.79695606 116.83390989 221.97973633 138.21020508 C227.21635449 146.70693461 232.40071741 155.23441117 237.57275391 163.77050781 C242.68184032 172.2010823 247.8250859 180.6095929 253 189 C260.73301602 201.541734 268.39454744 214.12569602 276.02099609 226.73242188 C277.92208655 229.87135534 279.82960882 233.00629798 281.73828125 236.140625 C282.84661748 237.96859037 283.95470721 239.79670524 285.0625 241.625 C285.56942383 242.45435059 286.07634766 243.28370117 286.59863281 244.13818359 C287.27877441 245.26474365 287.27877441 245.26474365 287.97265625 246.4140625 C288.36718994 247.0632666 288.76172363 247.7124707 289.16821289 248.38134766 C290 250 290 250 290 252 C290.66 252 291.32 252 292 252 C292.24105469 251.30777344 292.48210937 250.61554688 292.73046875 249.90234375 C294.21955952 246.49805317 296.19962588 243.59620013 298.3125 240.5625 C304.50334989 231.48151342 309.98546865 222.0002256 315.52490234 212.51367188 C317.44543386 209.24094885 319.4079571 205.99487215 321.375 202.75 C331.87693744 185.32498385 341.88576654 167.61435737 351.53613281 149.70556641 C352.98921395 147.01993512 354.45725579 144.34303272 355.9296875 141.66796875 C365.13844512 124.8880934 373.85699336 107.86088405 382.53436279 90.80183411 C384.86866345 86.21346885 387.21899016 81.63410544 389.5859375 77.0625 C397.95954031 60.809751 404.65431217 45.07193268 400.15234375 26.50390625 C397.22463149 18.87200547 392.38919989 10.92666089 386.2578125 5.44140625 C385 4 385 4 385 0 C410.52407761 -0.07049569 436.04814034 -0.12318481 461.57229614 -0.15543652 C473.42713705 -0.17081839 485.28191701 -0.19173899 497.13671875 -0.22631836 C507.48533869 -0.2564896 517.83391443 -0.27563779 528.18257713 -0.28226548 C533.64759173 -0.28613148 539.11248004 -0.295029 544.57745361 -0.31719017 C584.36105551 -0.47201332 624.11670104 0.34157852 662 14 C663.24136719 14.43828125 664.48273437 14.8765625 665.76171875 15.328125 C710.44676774 32.13936505 746.1697496 65.68154473 766.31640625 108.85546875 C788.92289868 159.42880979 788.47882489 217.13178511 769.26513672 268.61474609 C760.7864854 290.40022998 749.19975006 311.19200881 734 329 C733.31550781 329.80695313 732.63101563 330.61390625 731.92578125 331.4453125 C705.35687092 361.87792433 668.39186868 379.71505998 629.375 388.25 C628.69695313 388.40114258 628.01890625 388.55228516 627.3203125 388.70800781 C608.68373318 392.53023218 589.82006195 392.33975306 570.89519072 392.40471697 C566.87935569 392.42054075 562.86359211 392.4472675 558.84780884 392.4727478 C551.27296018 392.51919985 543.69809757 392.55610436 536.12318099 392.58942068 C527.4868494 392.62788207 518.85059016 392.67722773 510.21431994 392.72740483 C492.47626652 392.83022415 474.73816872 392.91964415 457 393 C456.90636743 418.80039352 456.83592824 444.60076141 456.79275131 470.40129089 C456.77216654 482.38216854 456.74412431 494.36294032 456.69824219 506.34375 C456.65824909 516.79183178 456.63253753 527.23983685 456.62364602 537.68799305 C456.61845235 543.21513686 456.60633113 548.74206133 456.57707977 554.26913452 C456.54971327 559.48283331 456.54159751 564.69622461 456.54756927 569.9099884 C456.54647846 571.81255266 456.53865218 573.71512836 456.5231781 575.61763 C456.34830351 598.24860229 461.40768397 616.83723487 477 634 C477.55171875 634.64453125 478.1034375 635.2890625 478.671875 635.953125 C487.47765144 645.63076049 500.26462618 651.65760089 513 654 C513 656.97 513 659.94 513 663 C401.79 663 290.58 663 176 663 C176 660.69 176 658.38 176 656 C176.96679688 655.5153125 177.93359375 655.030625 178.9296875 654.53125 C186.99889955 650.40987267 194.24421393 646.12101422 201 640 C201.83015625 639.26265625 202.6603125 638.5253125 203.515625 637.765625 C218.69977789 623.51301523 227.71984154 604.10053764 228.40104318 583.26390874 C228.51060479 578.04217855 228.54900087 572.82109184 228.57861328 567.59838867 C228.60235788 565.24134269 228.6271672 562.88430724 228.6529541 560.52728271 C228.73113153 552.82428164 228.77748655 545.12123558 228.8203125 537.41796875 C228.83236811 535.42174101 228.84442398 533.42551328 228.85658024 531.42928615 C228.92764916 519.6615812 228.98815398 507.89385655 229.02357674 496.12598705 C229.03236283 493.25627289 229.04124829 490.38655907 229.05029297 487.5168457 C229.05253112 486.80377328 229.05476927 486.09070086 229.05707525 485.35602019 C229.094969 473.82639548 229.19457979 462.29816545 229.31969847 450.76919135 C229.4476394 438.88092535 229.51773813 426.99336935 229.53333843 415.10441762 C229.54350256 408.44972743 229.57957281 401.79693516 229.67764664 395.14278221 C231.46068708 358.01784911 231.46068708 358.01784911 214.96043015 326.2752018 C211.37502938 322.11411996 208.66599978 317.36504099 205.8125 312.6875 C204.65346798 310.86091012 203.49119215 309.03637028 202.32421875 307.21484375 C191.7164967 290.57701854 181.31974307 273.81799054 171 257 C156.72084207 233.73851463 142.30389361 210.57299046 127.63037109 187.55810547 C119.61327559 174.97902091 111.7241497 162.32814431 103.92236328 149.61425781 C99.99135451 143.21476679 96.02685966 136.83957377 92 130.5 C87.31551044 123.11964363 82.70597692 115.69503983 78.125 108.25 C77.4429248 107.14197021 76.76084961 106.03394043 76.05810547 104.89233398 C72.84776059 99.66781187 69.65293482 94.43517166 66.5 89.17578125 C60.11949086 78.5474263 53.53292929 68.08343364 46.6875 57.75 C46.3187677 57.18959015 45.9500354 56.6291803 45.57012939 56.05178833 C38.92725446 45.975628 31.61020855 36.63238348 23.375 27.8125 C19.79512308 23.95491142 16.27153095 20.06158451 12.83203125 16.078125 C9.64123347 12.45871259 6.33189191 8.9445791 3.0390625 5.41796875 C1 3 1 3 0 0 Z " fill="#F9F7F1" transform="translate(128,416)"/>
<path d="M0 0 C7.54668885 -0.02340034 15.09337383 -0.04105372 22.64009094 -0.05181217 C26.14614158 -0.05698146 29.652167 -0.06396763 33.15820312 -0.07543945 C72.30838024 -0.19979523 72.30838024 -0.19979523 86.125 2.75 C86.96699951 2.9262793 87.80899902 3.10255859 88.67651367 3.28417969 C106.50689353 7.17889337 122.49613622 14.63352138 136 27 C136.85207031 27.77085937 137.70414063 28.54171875 138.58203125 29.3359375 C162.33178434 51.88178605 175.12515981 87.66736462 176 120 C176.02578125 120.8029248 176.0515625 121.60584961 176.078125 122.43310547 C177.19092852 161.61074433 170.40716708 203.48730407 144 234 C143.35933594 234.79664063 142.71867187 235.59328125 142.05859375 236.4140625 C123.14224174 259.02753834 92.07274054 273.34620473 63 276 C59.36129446 276.13363562 55.72674908 276.12672619 52.0859375 276.11352539 C51.00454498 276.11364593 49.92315247 276.11376646 48.80899048 276.11389065 C45.33097226 276.11314811 41.85300856 276.10555003 38.375 276.09765625 C36.21875026 276.09618479 34.06250017 276.09516534 31.90625 276.09460449 C23.93749453 276.08937528 15.96874672 276.07541401 8 276.0625 C-18.73 276.0315625 -18.73 276.0315625 -46 276 C-46.495 220.065 -46.495 220.065 -47 163 C-56.92195593 179.92568953 -66.78733703 196.80932745 -76.30712891 213.95263672 C-79.15414329 219.07759108 -82.01310655 224.19584249 -84.875 229.3125 C-85.44758545 230.33633789 -86.0201709 231.36017578 -86.61010742 232.41503906 C-91.36000994 240.89186941 -96.1761543 249.3300444 -101.00888062 257.75979614 C-106.54179318 267.41187302 -112.00126637 277.10214095 -117.39648438 286.83203125 C-117.92951172 287.78980469 -118.46253906 288.74757813 -119.01171875 289.734375 C-119.69947388 290.97525879 -119.69947388 290.97525879 -120.40112305 292.24121094 C-122 295 -122 295 -123.22741717 296.59987259 C-127.57231975 302.55595756 -127.70910232 307.7253931 -127.63923645 314.93359375 C-127.65176996 316.7140668 -127.65176996 316.7140668 -127.66455668 318.530509 C-127.68264809 321.80779515 -127.67853506 325.08416971 -127.6648711 328.361449 C-127.65558128 331.90196166 -127.67517084 335.44233114 -127.69119263 338.98280334 C-127.71500071 345.1110768 -127.72064945 351.23914916 -127.71384621 357.36746216 C-127.70403644 366.22784735 -127.72179686 375.08800997 -127.74621352 383.94835913 C-127.78508551 398.32478993 -127.80176501 412.70115697 -127.80444336 427.07763672 C-127.80709223 441.04023508 -127.82022082 455.00275896 -127.84741211 468.96533203 C-127.84992218 470.25704193 -127.84992218 470.25704193 -127.85248295 471.57484698 C-127.86094263 475.89507885 -127.86960801 480.21531028 -127.87837565 484.53554153 C-127.95080713 520.35701657 -127.98720338 556.17845649 -128 592 C-134.36477565 589.58182251 -138.94619849 585.47884703 -144 581 C-144.51079102 580.54802246 -145.02158203 580.09604492 -145.54785156 579.63037109 C-159.85859384 566.73631135 -168.61479514 550.00205448 -170.1990546 530.55679667 C-170.28635605 528.03400019 -170.31919656 525.51704051 -170.32798767 522.99275208 C-170.33886888 522.03671748 -170.34975008 521.08068289 -170.36096102 520.09567755 C-170.39446671 516.91902161 -170.41406302 513.74244555 -170.43334961 510.56567383 C-170.45408744 508.27641716 -170.47549278 505.98716645 -170.49751282 503.69792175 C-170.56519558 496.20103802 -170.61091869 488.70410061 -170.65234375 481.20703125 C-170.66320853 479.28755696 -170.66320853 479.28755696 -170.6742928 477.32930541 C-170.74149149 465.23912514 -170.79989146 453.14893616 -170.83782101 441.05862904 C-170.84673731 438.26540391 -170.85578498 435.47217926 -170.86499023 432.67895508 C-170.86726927 431.98485815 -170.8695483 431.29076122 -170.87189639 430.57563104 C-170.91017515 419.35893557 -171.00020525 408.14326915 -171.11125737 396.92708293 C-171.2247486 385.36774662 -171.28699498 373.80899308 -171.3044911 362.24910945 C-171.31564273 355.77606242 -171.34825789 349.30488121 -171.43562126 342.83237648 C-171.51693556 336.73053465 -171.53481337 330.63157225 -171.50698662 324.52928352 C-171.50736514 322.30864806 -171.52942066 320.08787515 -171.57658768 317.86774063 C-171.9096798 301.28847747 -167.73638179 290.4416985 -158.67790806 276.61244047 C-155.96258174 272.38477834 -153.52123635 268.00511566 -151.0625 263.625 C-150.23758057 262.18616455 -150.23758057 262.18616455 -149.39599609 260.71826172 C-146.78910439 256.16421722 -144.21143631 251.59543724 -141.6640625 247.0078125 C-135.81014467 236.46611904 -129.86740883 226.00484866 -123.625 215.6875 C-111.859982 196.23344874 -100.69859662 176.46581719 -89.93359375 156.44140625 C-87.00611533 150.99763867 -84.02006575 145.58868801 -81.00268555 140.19433594 C-78.44676914 135.62021911 -75.92389885 131.02963614 -73.421875 126.42578125 C-66.02966106 112.84945846 -58.38144294 99.49384604 -50.29345703 86.31982422 C-43.57905912 75.37640591 -37.17631928 64.26350062 -30.79541016 53.12304688 C-27.88888477 48.06725781 -24.9443976 43.0337962 -22 38 C-14.61394026 25.36363419 -7.30547805 12.68306694 0 0 Z " fill="#0C1E36" transform="translate(630,474)"/>
<path d="M0 0 C0.33 0 0.66 0 1 0 C1 9.24 1 18.48 1 28 C0.01 28.33 -0.98 28.66 -2 29 C-2.02685938 26.85423363 -2.04633088 24.70837355 -2.0625 22.5625 C-2.07410156 21.36753906 -2.08570313 20.17257812 -2.09765625 18.94140625 C-2 16 -2 16 -1 15 C-0.76346477 12.47403741 -0.57826308 9.96892793 -0.4375 7.4375 C-0.39431641 6.72658203 -0.35113281 6.01566406 -0.30664062 5.28320312 C-0.20028223 3.52238088 -0.09961154 1.7612168 0 0 Z " fill="#1F2E45" transform="translate(462,978)"/>
<path d="M0 0 C0.33 0 0.66 0 1 0 C1.33 1.65 1.66 3.3 2 5 C2.33 5 2.66 5 3 5 C3.20496094 5.83144531 3.40992188 6.66289062 3.62109375 7.51953125 C3.89050781 8.60621094 4.15992188 9.69289063 4.4375 10.8125 C4.83775391 12.43091797 4.83775391 12.43091797 5.24609375 14.08203125 C5.76077412 16.0740843 6.34937175 18.04811524 7 20 C4 19 4 19 2.83203125 17.03125 C0.41844288 11.03889266 -0.41641338 6.45440733 0 0 Z " fill="#EBECEB" transform="translate(296,454)"/>
<path d="M0 0 C0.66 0.33 1.32 0.66 2 1 C2.4140625 3.94140625 2.4140625 3.94140625 2.625 7.5625 C2.69976563 8.76003906 2.77453125 9.95757813 2.8515625 11.19140625 C2.90054688 12.11824219 2.94953125 13.04507813 3 14 C2.71125 13.38125 2.4225 12.7625 2.125 12.125 C1.06279958 9.86674235 1.06279958 9.86674235 -1 8 C-1.33333333 2.66666667 -1.33333333 2.66666667 0 0 Z " fill="#16253B" transform="translate(585,1001)"/>
<path d="M0 0 C0 3 0 3 0 3 Z M-2 3 C-1.34 3.33 -0.68 3.66 0 4 C0 7.96 0 11.92 0 16 C-0.33 16 -0.66 16 -1 16 C-1.1953125 13.98177083 -1.390625 11.96354167 -1.5859375 9.9453125 C-1.86374749 7.77331755 -1.86374749 7.77331755 -4 6 C-3.34 5.01 -2.68 4.02 -2 3 Z " fill="#EFEFEB" transform="translate(582,638)"/>
<path d="M0 0 C1.69433918 3.0469629 2.49467112 5.82821466 3.125 9.25 C3.29257812 10.14203125 3.46015625 11.0340625 3.6328125 11.953125 C3.75398437 12.62859375 3.87515625 13.3040625 4 14 C1.3557092 11.4792063 -0.00219484 9.57546849 -1 6 C-0.625 2.6875 -0.625 2.6875 0 0 Z " fill="#EAECEC" transform="translate(903,551)"/>
<path d="M0 0 C0.66 0.33 1.32 0.66 2 1 C-0.475 5.455 -0.475 5.455 -3 10 C-3.66 9.34 -4.32 8.68 -5 8 C-4.34 6.35 -3.68 4.7 -3 3 C-2.34 3 -1.68 3 -1 3 C-0.67 2.01 -0.34 1.02 0 0 Z " fill="#EAEBE9" transform="translate(621,487)"/>
<path d="M0 0 C0.625 1.8125 0.625 1.8125 1 4 C0.01 5.485 0.01 5.485 -1 7 C-1.66 7 -2.32 7 -3 7 C-3.33 7.99 -3.66 8.98 -4 10 C-4.33 9.34 -4.66 8.68 -5 8 C-4.00390625 6.0546875 -4.00390625 6.0546875 -2.5625 3.875 C-2.08941406 3.15054688 -1.61632812 2.42609375 -1.12890625 1.6796875 C-0.75636719 1.12539063 -0.38382813 0.57109375 0 0 Z " fill="#08101C" transform="translate(578,564)"/>
<path d="M0 0 C1 2 1 2 0.3125 4.9375 C-1.06192878 8.14450048 -2.06205603 9.23723362 -5 11 C-4.46884894 6.48521602 -2.63379708 3.65333143 0 0 Z " fill="#080E1B" transform="translate(612,506)"/>
<path d="M0 0 C0.33 0.66 0.66 1.32 1 2 C-0.98 4.64 -2.96 7.28 -5 10 C-5.33 8.68 -5.66 7.36 -6 6 C-3.625 3.3125 -3.625 3.3125 -1 1 C-0.67 0.67 -0.34 0.34 0 0 Z " fill="#09101A" transform="translate(782,694)"/>
<path d="M0 0 C0.66 0 1.32 0 2 0 C0.25 6.75 0.25 6.75 -2 9 C-3 6 -3 6 -1.5625 2.8125 C-1.046875 1.884375 -0.53125 0.95625 0 0 Z " fill="#E9EAE7" transform="translate(482,561)"/>
<path d="M0 0 C0.99 0.33 1.98 0.66 3 1 C0.03 3.475 0.03 3.475 -3 6 C-3.66 5.67 -4.32 5.34 -5 5 C-3.35 3.35 -1.7 1.7 0 0 Z " fill="#E3E5E4" transform="translate(336,1049)"/>
<path d="M0 0 C2.31 0 4.62 0 7 0 C4.3144406 2.6855594 1.62378672 3.06049974 -2 4 C-2 3.34 -2 2.68 -2 2 C-1.34 2 -0.68 2 0 2 C0 1.34 0 0.68 0 0 Z " fill="#E4E6E7" transform="translate(790,791)"/>
<path d="M0 0 C0.77321882 2.98241547 1.41196203 5.97580475 2 9 C1.01 8.67 0.02 8.34 -1 8 C-1.04241723 5.66705225 -1.04092937 3.33297433 -1 1 C-0.67 0.67 -0.34 0.34 0 0 Z " fill="#ECECEB" transform="translate(804,569)"/>
</svg>
